REM DIRINDEX 1\2,1\3,1\4,1\5,1\6
REM DIRNAME folder01,folder02,folder03,folder04,folder05,folder06
TITLE ""
FILE "Disc1Track25.mp3" MP3
  TRACK 01 AUDIO
    TITLE "3:cjc030_00583"
    INDEX 01 00:00:00
  TRACK 02 AUDIO
    TITLE "0:"
    INDEX 01 00:01:24
  TRACK 03 AUDIO
    TITLE "4:cjc030_00584"
    INDEX 01 00:01:34
  TRACK 04 AUDIO
    TITLE "0:"
    INDEX 01 00:04:64
  TRACK 05 AUDIO
    TITLE "5:cjc030_00585"
    INDEX 01 00:04:74
  TRACK 06 AUDIO
    TITLE "0:"
    INDEX 01 00:06:26
  TRACK 07 AUDIO
    TITLE "3:cjc030_00586"
    INDEX 01 00:07:02
  TRACK 08 AUDIO
    TITLE "0:"
    INDEX 01 00:08:32
  TRACK 09 AUDIO
    TITLE "4:cjc030_00587"
    INDEX 01 00:08:42
  TRACK 10 AUDIO
    TITLE "0:"
    INDEX 01 00:10:33
  TRACK 11 AUDIO
    TITLE "5:cjc030_00588"
    INDEX 01 00:10:43
  TRACK 12 AUDIO
    TITLE "0:"
    INDEX 01 00:11:72
  TRACK 13 AUDIO
    TITLE "3:cjc030_00589"
    INDEX 01 00:12:46
  TRACK 14 AUDIO
    TITLE "0:"
    INDEX 01 00:14:33
  TRACK 15 AUDIO
    TITLE "4:cjc030_00590"
    INDEX 01 00:14:43
  TRACK 16 AUDIO
    TITLE "0:"
    INDEX 01 00:15:36
  TRACK 17 AUDIO
    TITLE "5:cjc030_00591"
    INDEX 01 00:15:44
  TRACK 18 AUDIO
    TITLE "0:"
    INDEX 01 00:17:33
  TRACK 19 AUDIO
    TITLE "6:cjc030_00592"
    INDEX 01 00:17:45
  TRACK 20 AUDIO
    TITLE "0:"
    INDEX 01 00:22:60
  TRACK 21 AUDIO
    TITLE "3:cjc030_00593"
    INDEX 01 00:23:30
  TRACK 22 AUDIO
    TITLE "0:"
    INDEX 01 00:25:17
  TRACK 23 AUDIO
    TITLE "4:cjc030_00594"
    INDEX 01 00:25:25
  TRACK 24 AUDIO
    TITLE "0:"
    INDEX 01 00:27:00
  TRACK 25 AUDIO
    TITLE "5:cjc030_00595"
    INDEX 01 00:27:10
  TRACK 26 AUDIO
    TITLE "0:"
    INDEX 01 00:28:72
  TRACK 27 AUDIO
    TITLE "6:cjc030_00596"
    INDEX 01 00:29:09
  TRACK 28 AUDIO
    TITLE "0:"
    INDEX 01 00:31:04
  TRACK 29 AUDIO
    TITLE "3:cjc030_00597"
    INDEX 01 00:31:49
  TRACK 30 AUDIO
    TITLE "0:"
    INDEX 01 00:32:70
  TRACK 31 AUDIO
    TITLE "4:cjc030_00598"
    INDEX 01 00:33:05
  TRACK 32 AUDIO
    TITLE "0:"
    INDEX 01 00:35:27
  TRACK 33 AUDIO
    TITLE "5:cjc030_00599"
    INDEX 01 00:35:35
  TRACK 34 AUDIO
    TITLE "0:"
    INDEX 01 00:36:58
  TRACK 35 AUDIO
    TITLE "6:cjc030_00600"
    INDEX 01 00:36:70
  TRACK 36 AUDIO
    TITLE "0:"
    INDEX 01 00:40:30
  TRACK 37 AUDIO
    TITLE "3:cjc030_00601"
    INDEX 01 00:41:02
  TRACK 38 AUDIO
    TITLE "0:"
    INDEX 01 00:42:33
  TRACK 39 AUDIO
    TITLE "4:cjc030_00602"
    INDEX 01 00:42:41
  TRACK 40 AUDIO
    TITLE "0:"
    INDEX 01 00:45:71
  TRACK 41 AUDIO
    TITLE "5:cjc030_00603"
    INDEX 01 00:46:02
  TRACK 42 AUDIO
    TITLE "0:"
    INDEX 01 00:47:34
  TRACK 43 AUDIO
    TITLE "6:cjc030_00604"
    INDEX 01 00:47:46
  TRACK 44 AUDIO
    TITLE "0:"
    INDEX 01 00:52:32
  TRACK 45 AUDIO
    TITLE "3:cjc030_00605"
    INDEX 01 00:53:04
  TRACK 46 AUDIO
    TITLE "0:"
    INDEX 01 00:54:44
  TRACK 47 AUDIO
    TITLE "4:cjc030_00606"
    INDEX 01 00:54:54
  TRACK 48 AUDIO
    TITLE "0:"
    INDEX 01 00:56:45
  TRACK 49 AUDIO
    TITLE "5:cjc030_00607"
    INDEX 01 00:56:57
  TRACK 50 AUDIO
    TITLE "0:"
    INDEX 01 00:58:22
  TRACK 51 AUDIO
    TITLE "3:cjc030_00608"
    INDEX 01 00:58:69
  TRACK 52 AUDIO
    TITLE "0:"
    INDEX 01 01:00:43
  TRACK 53 AUDIO
    TITLE "4:cjc030_00609"
    INDEX 01 01:00:53
  TRACK 54 AUDIO
    TITLE "0:"
    INDEX 01 01:03:06
  TRACK 55 AUDIO
    TITLE "5:cjc030_00610"
    INDEX 01 01:03:16
  TRACK 56 AUDIO
    TITLE "0:"
    INDEX 01 01:04:64
  TRACK 57 AUDIO
    TITLE "3:cjc030_00611"
    INDEX 01 01:05:36
  TRACK 58 AUDIO
    TITLE "0:"
    INDEX 01 01:06:71
  TRACK 59 AUDIO
    TITLE "4:cjc030_00612"
    INDEX 01 01:07:06
  TRACK 60 AUDIO
    TITLE "0:"
    INDEX 01 01:08:21
  TRACK 61 AUDIO
    TITLE "5:cjc030_00613"
    INDEX 01 01:08:29
  TRACK 62 AUDIO
    TITLE "0:"
    INDEX 01 01:09:65
  TRACK 63 AUDIO
    TITLE "6:cjc030_00614"
    INDEX 01 01:10:02
  TRACK 64 AUDIO
    TITLE "0:"
    INDEX 01 01:12:28
  TRACK 65 AUDIO
    TITLE "6:cjc030_00615"
    INDEX 01 01:12:62
  TRACK 66 AUDIO
    TITLE "0:"
    INDEX 01 01:16:07
  TRACK 67 AUDIO
    TITLE "3:cjc030_00616"
    INDEX 01 01:16:56
  TRACK 68 AUDIO
    TITLE "0:"
    INDEX 01 01:18:21
  TRACK 69 AUDIO
    TITLE "4:cjc030_00617"
    INDEX 01 01:18:31
  TRACK 70 AUDIO
    TITLE "0:"
    INDEX 01 01:19:21
  TRACK 71 AUDIO
    TITLE "5:cjc030_00618"
    INDEX 01 01:19:30
  TRACK 72 AUDIO
    TITLE "0:"
    INDEX 01 01:20:71
  TRACK 73 AUDIO
    TITLE "3:cjc030_00619"
    INDEX 01 01:21:43
  TRACK 74 AUDIO
    TITLE "0:"
    INDEX 01 01:22:58
  TRACK 75 AUDIO
    TITLE "4:cjc030_00620"
    INDEX 01 01:22:68
  TRACK 76 AUDIO
    TITLE "0:"
    INDEX 01 01:24:36
  TRACK 77 AUDIO
    TITLE "5:cjc030_00621"
    INDEX 01 01:24:45
  TRACK 78 AUDIO
    TITLE "0:"
    INDEX 01 01:25:60
  TRACK 79 AUDIO
    TITLE "6:cjc030_00622"
    INDEX 01 01:25:72
  TRACK 80 AUDIO
    TITLE "0:"
    INDEX 01 01:29:39
  TRACK 81 AUDIO
    TITLE "3:cjc030_00623"
    INDEX 01 01:30:15
  TRACK 82 AUDIO
    TITLE "0:"
    INDEX 01 01:31:39
  TRACK 83 AUDIO
    TITLE "4:cjc030_00624"
    INDEX 01 01:31:49
  TRACK 84 AUDIO
    TITLE "0:"
    INDEX 01 01:32:53
  TRACK 85 AUDIO
    TITLE "5:cjc030_00625"
    INDEX 01 01:32:60
  TRACK 86 AUDIO
    TITLE "0:"
    INDEX 01 01:34:10
  TRACK 87 AUDIO
    TITLE "6:cjc030_00626"
    INDEX 01 01:34:22
  TRACK 88 AUDIO
    TITLE "0:"
    INDEX 01 01:35:69
  TRACK 89 AUDIO
    TITLE "3:cjc030_00627"
    INDEX 01 01:36:37
  TRACK 90 AUDIO
    TITLE "0:"
    INDEX 01 01:37:69
  TRACK 91 AUDIO
    TITLE "4:cjc030_00628"
    INDEX 01 01:38:04
  TRACK 92 AUDIO
    TITLE "0:"
    INDEX 01 01:40:11
  TRACK 93 AUDIO
    TITLE "5:cjc030_00629"
    INDEX 01 01:40:19
  TRACK 94 AUDIO
    TITLE "0:"
    INDEX 01 01:41:52
  TRACK 95 AUDIO
    TITLE "6:cjc030_00630"
    INDEX 01 01:41:65
  TRACK 96 AUDIO
    TITLE "0:"
    INDEX 01 01:44:46
  TRACK 97 AUDIO
    TITLE "3:cjc030_00631"
    INDEX 01 01:45:18
  TRACK 98 AUDIO
    TITLE "0:"
    INDEX 01 01:47:70
  TRACK 99 AUDIO
    TITLE "4:cjc030_00632"
    INDEX 01 01:48:05
  TRACK 100 AUDIO
    TITLE "0:"
    INDEX 01 01:51:42
  TRACK 101 AUDIO
    TITLE "5:cjc030_00633"
    INDEX 01 01:51:50
  TRACK 102 AUDIO
    TITLE "0:"
    INDEX 01 01:54:27
